<?xml version="1.0" standalone="no"?>
<!DOCTYPE svg PUBLIC "-//W3C//DTD SVG 20010904//EN"
 "http://www.w3.org/TR/2001/REC-SVG-20010904/DTD/svg10.dtd">
<svg version="1.0" xmlns="http://www.w3.org/2000/svg"
 width="1080.000000pt" height="1080.000000pt" viewBox="0 0 1080.000000 1080.000000"
 preserveAspectRatio="xMidYMid meet">

<g transform="translate(0.000000,1080.000000) scale(0.100000,-0.100000)"
fill="#000000" stroke="none">
<path d="M2407 10183 c-17 -28 -29 -177 -25 -309 4 -127 9 -160 31 -221 l26
-73 -118 -89 c-180 -138 -331 -270 -506 -446 -566 -566 -958 -1201 -1236
-2005 -71 -204 -144 -510 -188 -786 -62 -388 -69 -963 -16 -1389 37 -296 138
-739 230 -1005 173 -502 423 -973 740 -1395 410 -547 918 -996 1515 -1341 614
-354 1301 -574 2035 -650 236 -25 714 -25 950 0 947 99 1806 433 2550 991 547
410 996 918 1341 1515 354 614 571 1294 651 2035 20 187 25 822 7 846 -6 8
-11 32 -13 54 -5 69 -28 265 -32 270 -2 2 -789 353 -1749 780 -960 428 -1758
784 -1775 793 -16 8 -55 37 -85 65 -89 81 -222 180 -306 229 -44 25 -144 83
-224 129 -208 119 -1045 537 -1315 656 -126 56 -302 130 -390 163 -154 60
-683 239 -929 315 -183 57 -402 157 -603 275 -136 81 -166 104 -277 213 -98
97 -165 184 -247 325 -20 35 -39 60 -42 55z"/>
</g>
</svg>
